<svg width="17" height="16" viewBox="0 0 17 16" fill="none" xmlns="http://www.w3.org/2000/svg">
<rect width="16" height="16" transform="translate(0.5)" fill="white" fill-opacity="0.01"/>
<path fill-rule="evenodd" clip-rule="evenodd" d="M5.9175 6.66667H3.16683C2.42483 6.66667 1.8335 7.26334 1.8335 8.00001V10.4867C1.8335 11.36 3.08283 11.8553 4.50016 11.9733V9.99734C4.50122 9.46748 4.71236 8.95966 5.08728 8.58524C5.4622 8.21082 5.9703 8.00036 6.50016 8.00001H6.73616C6.3361 7.64742 6.05093 7.18298 5.9175 6.66667ZM11.0828 6.66667H13.8335C14.5702 6.66667 15.1668 7.25667 15.1668 8.00001V10.4867C15.1668 11.36 13.9175 11.8553 12.5002 11.9733V9.99734C12.4995 9.46737 12.2884 8.95935 11.9134 8.58485C11.5384 8.21035 11.0301 8.00001 10.5002 8.00001H10.2642C10.6642 7.64742 10.9494 7.18298 11.0828 6.66667ZM7.14483 3.70267C7.08348 3.29537 6.89787 2.91695 6.61337 2.6191C6.32886 2.32125 5.95933 2.11851 5.55527 2.03858C5.1512 1.95865 4.73231 2.00542 4.35583 2.1725C3.97935 2.33959 3.66364 2.61884 3.45183 2.97211C3.24002 3.32537 3.14245 3.73541 3.17245 4.14621C3.20245 4.55701 3.35855 4.94853 3.61943 5.26728C3.8803 5.58603 4.23323 5.81645 4.63 5.92708C5.02676 6.0377 5.448 6.02312 5.83616 5.88534C5.85506 5.44127 5.98469 5.00898 6.21324 4.62777C6.4418 4.24657 6.76204 3.92856 7.14483 3.70267ZM11.1648 5.88534C11.5529 6.02306 11.9741 6.03761 12.3708 5.92701C12.7675 5.8164 13.1204 5.58602 13.3813 5.26734C13.6421 4.94867 13.7983 4.55723 13.8283 4.1465C13.8584 3.73577 13.7609 3.32577 13.5493 2.9725C13.3376 2.61923 13.022 2.33993 12.6456 2.17273C12.2693 2.00553 11.8505 1.9586 11.4464 2.03834C11.0424 2.11807 10.6728 2.3206 10.3882 2.61824C10.1036 2.91589 9.91776 3.29414 9.85616 3.70134C10.2393 3.92712 10.5599 4.24528 10.7885 4.62679C11.0171 5.00829 11.1464 5.44097 11.1648 5.88534Z" fill="#5243AA"/>
<path fill-rule="evenodd" clip-rule="evenodd" d="M5.16683 10C5.16683 9.26334 5.75816 8.66667 6.50016 8.66667H10.5002C11.2368 8.66667 11.8335 9.25667 11.8335 10V12.4867C11.8335 14.5047 5.16683 14.5047 5.16683 12.4867V10Z" fill="#5243AA"/>
<path d="M8.50016 8.00001C9.60473 8.00001 10.5002 7.10458 10.5002 6.00001C10.5002 4.89544 9.60473 4.00001 8.50016 4.00001C7.39559 4.00001 6.50016 4.89544 6.50016 6.00001C6.50016 7.10458 7.39559 8.00001 8.50016 8.00001Z" fill="#5243AA"/>
</svg>
