<svg width="51" height="22" viewBox="0 0 51 22" fill="none" xmlns="http://www.w3.org/2000/svg">
<path d="M10.8513 18.7513C10.6128 19.2467 10.2642 19.6961 9.78723 20.0814C9.31942 20.4666 8.73237 20.7785 8.03525 21.017C7.33813 21.2555 6.5401 21.3747 5.63201 21.3747C4.97158 21.3747 4.35701 21.3105 3.77913 21.1729C3.20125 21.0353 2.67841 20.8702 2.19226 20.6684C1.71528 20.4575 1.28417 20.2281 0.917266 19.9805C0.55036 19.7236 0.247662 19.4668 0 19.2008L1.88957 16.8526C2.42158 17.403 3.00863 17.8249 3.65989 18.1368C4.31115 18.4486 4.96241 18.6046 5.62284 18.6046C6.1732 18.6046 6.58597 18.4945 6.8795 18.2652C7.17302 18.0359 7.31978 17.779 7.31978 17.4763C7.31978 17.0819 7.09046 16.7792 6.641 16.5682C6.43003 16.4582 6.20072 16.3573 5.95305 16.2839C5.69622 16.2105 5.43938 16.128 5.17338 16.0271L4.30197 15.7702C3.90755 15.6601 3.56817 15.5409 3.30216 15.4308C3.02698 15.3208 2.77014 15.1923 2.52248 15.0639C1.80701 14.6878 1.28417 14.2567 0.9723 13.7798C0.651257 13.3028 0.49532 12.6607 0.49532 11.8718C0.49532 11.3673 0.614567 10.8628 0.853056 10.3767C1.09155 9.89054 1.43094 9.44108 1.8804 9.04666C2.32986 8.65224 2.88938 8.33119 3.54982 8.10188C4.21025 7.87256 4.97158 7.74414 5.84298 7.74414C6.52176 7.74414 7.12715 7.80835 7.65 7.94594C8.18201 8.07436 8.64065 8.23947 9.04424 8.42292C9.44784 8.61555 9.80557 8.82652 10.1083 9.05584C10.411 9.29432 10.677 9.50529 10.8971 9.68875L9.00755 11.9177C8.63147 11.5416 8.1545 11.2114 7.56745 10.9271C6.9804 10.6427 6.39334 10.5051 5.78795 10.5051C5.33849 10.5051 4.96241 10.606 4.65971 10.7986C4.35701 11.0004 4.21025 11.2573 4.21025 11.5783C4.21025 11.826 4.31115 12.0278 4.50377 12.1837C4.6964 12.3396 4.93489 12.4681 5.19172 12.569C5.43939 12.6607 5.68705 12.7524 5.94388 12.835C6.20072 12.9175 6.48507 13.0093 6.80611 13.101L7.71421 13.3853C8.20036 13.5321 8.69568 13.7431 9.18183 13.9907C9.66798 14.2476 10.0991 14.5686 10.4568 14.963C10.9613 15.5317 11.2182 16.2839 11.2182 17.2195C11.209 17.7423 11.0897 18.2468 10.8513 18.7513Z" fill="#36B37E"/>
<path d="M11.5208 11.1009V8.05561H13.4104V3.90039H17.3913V8.05561H20.1064V11.1101H17.3913V21.0533H13.4104V11.1009H11.5208Z" fill="#36B37E"/>
<path d="M26.8025 13.1009C27.3896 13.2568 27.9124 13.4953 28.3894 13.7888V13.2843C28.3894 12.3946 28.1693 11.7617 27.7382 11.3672C27.3254 10.9545 26.7292 10.7435 25.9587 10.7435C25.4725 10.7435 24.913 10.8352 24.2892 11.0095C23.6655 11.193 22.9867 11.4865 22.2529 11.8993L21.0146 9.34925C21.9594 8.78054 22.9042 8.37695 23.8673 8.12012C24.8304 7.86328 25.7569 7.73486 26.665 7.73486C27.6464 7.73486 28.5362 7.90914 29.3342 8.25771C30.1322 8.60627 30.7927 9.08324 31.2972 9.68864C31.6916 10.1748 31.9576 10.716 32.086 11.303C32.2144 11.8901 32.2878 12.5413 32.2878 13.2568V21.0536H28.5545L28.472 19.9804C27.9858 20.4665 27.3988 20.8242 26.7383 21.0444C26.0687 21.2645 25.4267 21.3654 24.8029 21.3654C24.1425 21.3654 23.5279 21.2645 22.95 21.0719C22.3722 20.8701 21.8768 20.5949 21.4549 20.228C21.0329 19.8611 20.7027 19.4117 20.4642 18.8705C20.2258 18.3293 20.1065 17.7331 20.1065 17.0726C20.1065 16.5039 20.2166 15.9719 20.4459 15.4582C20.6752 14.9537 20.9963 14.5043 21.4182 14.119C21.8401 13.7338 22.363 13.4311 22.9684 13.2018C23.5829 12.9725 24.2801 12.8624 25.0781 12.8624C25.6468 12.8532 26.2247 12.9358 26.8025 13.1009ZM28.1784 16.2471C28.0409 16.0178 27.8574 15.8252 27.6281 15.6692C27.3988 15.5133 27.1511 15.394 26.8668 15.3115C26.5824 15.2381 26.2981 15.2014 26.0229 15.2014C25.4175 15.2014 24.9038 15.3573 24.4819 15.6784C24.0599 15.9994 23.849 16.4305 23.849 16.9809C23.849 17.5313 24.0599 17.9624 24.4727 18.2834C24.8855 18.6045 25.3991 18.7604 25.9954 18.7604C26.6191 18.7604 27.1695 18.6136 27.6648 18.3201C28.1509 18.0266 28.3986 17.5863 28.3986 17.0084C28.3894 16.7241 28.316 16.4764 28.1784 16.2471Z" fill="#36B37E"/>
<path d="M40.7538 3.82724C40.552 3.79972 40.3411 3.78137 40.1209 3.78137C39.7448 3.78137 39.4054 3.85476 39.1027 4.01069C38.8 4.15745 38.5616 4.39594 38.3965 4.71698C38.3047 4.90961 38.2313 5.12975 38.1671 5.37741C38.1121 5.63425 38.0846 5.98281 38.0846 6.44145V8.05583H41.1941V11.1103H38.1121V21.0535H34.1312V11.1012H32.4893V8.05583H34.1312V6.16627C34.1312 5.35907 34.2321 4.61608 34.4247 3.93731C34.6265 3.25853 34.9292 2.67148 35.3603 2.18533C35.7822 1.69918 36.3234 1.31393 36.9747 1.03875C37.626 0.763566 38.4056 0.625977 39.3045 0.625977C39.699 0.625977 40.0934 0.64432 40.4786 0.68101C40.8639 0.717701 41.2033 0.772741 41.4785 0.846123L41.3409 3.92813C41.1391 3.89144 40.9464 3.85476 40.7538 3.82724Z" fill="#36B37E"/>
<path d="M50.2751 3.82724C50.0733 3.79972 49.8624 3.78137 49.6422 3.78137C49.2661 3.78137 48.9267 3.85476 48.624 4.01069C48.3213 4.15745 48.0829 4.39594 47.9178 4.71698C47.826 4.90961 47.7526 5.12975 47.6884 5.37741C47.6334 5.63425 47.6059 5.98281 47.6059 6.44145V8.05583H50.7154V11.1103H47.6334V21.0535H43.6525V11.1012H42.0106V8.05583H43.6525V6.16627C43.6525 5.35907 43.7534 4.61608 43.946 3.93731C44.1478 3.25853 44.4505 2.67148 44.8816 2.18533C45.3035 1.69918 45.8447 1.31393 46.496 1.03875C47.1473 0.763566 47.9269 0.625977 48.8258 0.625977C49.2203 0.625977 49.6147 0.64432 49.9999 0.68101C50.3852 0.717701 50.7246 0.772741 50.9998 0.846123L50.8622 3.92813C50.6696 3.89144 50.4769 3.85476 50.2751 3.82724Z" fill="#36B37E"/>
</svg>
