<svg width="48" height="48" viewBox="0 0 48 48" fill="none" xmlns="http://www.w3.org/2000/svg">
<path d="M12 3H27V6H12C11.2044 6 10.4413 6.31607 9.87868 6.87868C9.31607 7.44129 9 8.20435 9 9V39C9 39.7957 9.31607 40.5587 9.87868 41.1213C10.4413 41.6839 11.2044 42 12 42H36C36.7956 42 37.5587 41.6839 38.1213 41.1213C38.6839 40.5587 39 39.7957 39 39V18H42V39C42 40.5913 41.3679 42.1174 40.2426 43.2426C39.1174 44.3679 37.5913 45 36 45H12C10.4087 45 8.88258 44.3679 7.75736 43.2426C6.63214 42.1174 6 40.5913 6 39V9C6 7.4087 6.63214 5.88258 7.75736 4.75736C8.88258 3.63214 10.4087 3 12 3Z" fill="#343A40"/>
<path d="M27 13.5V3L42 18H31.5C30.3065 18 29.1619 17.5259 28.318 16.682C27.4741 15.8381 27 14.6935 27 13.5Z" fill="#343A40"/>
</svg>
