<svg width="87" height="104" viewBox="0 0 87 104" fill="none" xmlns="http://www.w3.org/2000/svg">
<path d="M81.1241 69.688C79.2778 66.0392 76.3101 63.0785 72.6569 61.2407L65.9876 57.9058L68.7994 32.5961C69.5147 26.3468 68.2023 20.0331 65.0558 14.5866C61.9094 9.14 57.0956 4.84906 51.3246 2.34685L49.9349 1.7392C47.3051 0.592082 44.4669 0 41.5978 0C38.7287 0 35.8905 0.592082 33.2607 1.7392L31.8744 2.34685C26.1031 4.84865 21.2887 9.13945 18.142 14.5861C14.9952 20.0327 13.6826 26.3466 14.3979 32.5961L17.2097 57.9058L10.5402 61.2407C7.36512 62.8141 4.69457 65.2459 2.83155 68.2602C0.968529 71.2745 -0.0123781 74.7506 0.000117918 78.2941V103.98H69.3308V103.919C71.0865 103.805 72.8003 103.332 74.3669 102.531C75.5312 103.363 76.9023 103.857 78.3295 103.96C79.7566 104.063 81.1844 103.769 82.4556 103.113C83.7269 102.456 84.7923 101.462 85.5348 100.238C86.2772 99.0153 86.6677 97.6111 86.6635 96.1803V77.1143C86.6577 75.4463 86.1162 73.8243 85.1189 72.4874C84.1216 71.1503 82.7212 70.169 81.1241 69.688ZM83.1969 77.1143V84.914H74.5306V77.1143C74.5306 75.9651 74.9871 74.8629 75.7998 74.0503C76.6124 73.2377 77.7145 72.7812 78.8638 72.7812C80.013 72.7812 81.1152 73.2377 81.9278 74.0503C82.7404 74.8629 83.1969 75.9651 83.1969 77.1143ZM71.0641 85.9296L60.6155 96.3782C59.4735 94.7706 58.8626 92.8462 58.8685 90.8742C58.8743 88.9023 59.4965 86.9815 60.6479 85.3807C61.7994 83.7798 63.4226 82.5791 65.2903 81.9464C67.158 81.3137 69.1767 81.2807 71.0641 81.8521V85.9296ZM63.0664 98.8291L71.0641 90.8315V96.1803C71.073 97.4503 71.3959 98.6985 72.0041 99.8135C70.5504 100.408 68.9712 100.629 67.4102 100.457C65.8492 100.285 64.356 99.7254 63.0664 98.8291ZM45.7168 53.199L43.9293 54.0944C43.2055 54.4545 42.4081 54.6421 41.5996 54.6424C40.7911 54.6427 39.9936 54.4557 39.2695 54.0961L37.4803 53.199C34.0216 51.48 31.1131 48.8273 29.084 45.5409C27.055 42.2546 25.9864 38.4658 25.9991 34.6036V26.3926C25.9978 26.0704 26.0869 25.7543 26.2562 25.4802C26.4256 25.2061 26.6684 24.9851 26.9572 24.8421L29.1965 23.7233C33.05 21.8073 37.295 20.8102 41.5985 20.8102C45.902 20.8102 50.147 21.8073 54.0005 23.7233L56.2399 24.8421C56.5286 24.9851 56.7715 25.2061 56.9408 25.4802C57.1102 25.7543 57.1993 26.0704 57.1979 26.3926V34.6036C57.2107 38.4658 56.1421 42.2546 54.113 45.5409C52.084 48.8273 49.1755 51.48 45.7168 53.199ZM35.9265 56.2965L37.7173 57.1953C38.9234 57.7956 40.2524 58.1079 41.5996 58.1076C42.9468 58.1073 44.2757 57.7944 45.4815 57.1936L47.2706 56.2964C48.4872 55.6826 49.6505 54.9686 50.7487 54.1619L56.6394 57.1075L48.0526 61.0105C46.0258 61.9325 43.8251 62.4095 41.5985 62.4095C39.372 62.4095 37.1712 61.9325 35.1445 61.0105L26.5577 57.1076L32.4484 54.162C33.5466 54.9687 34.7099 55.6827 35.9265 56.2965H35.9265ZM22.569 59.1021L33.7091 64.1656C34.8825 64.6958 36.1067 65.1054 37.3628 65.3879L31.1616 70.557L18.8351 60.9691L22.569 59.1021ZM46.0596 76.2477H37.1375L36.5414 70.5853L41.5985 66.3721L46.6556 70.5853L46.0596 76.2477ZM45.6947 79.7142L43.5053 100.513H39.6918L37.5023 79.7142H45.6947ZM45.8336 65.3874C47.0899 65.1046 48.3142 64.6952 49.4879 64.1656L60.6281 59.1021L64.3619 60.9691L52.0354 70.557L45.8336 65.3874ZM17.844 32.2136C17.2123 26.6992 18.3702 21.1278 21.1467 16.3218C23.9232 11.5157 28.1713 7.72959 33.264 5.52225L34.6502 4.9146C36.842 3.96004 39.207 3.46739 41.5977 3.46739C43.9883 3.46739 46.3533 3.96004 48.5451 4.9146L49.9348 5.52225C55.027 7.73 59.2747 11.5162 62.0509 16.3222C64.8271 21.1282 65.9847 26.6994 65.3531 32.2136L62.6824 56.2531L53.6077 51.7154C55.8527 49.4682 57.6317 46.7998 58.8427 43.8633C60.0537 40.9268 60.6728 37.78 60.6645 34.6036V26.3926C60.6676 25.4262 60.4 24.4783 59.892 23.6562C59.384 22.8341 58.656 22.1707 57.7904 21.7412L55.551 20.6223C51.2156 18.4673 46.44 17.3458 41.5985 17.3458C36.7571 17.3458 31.9814 18.4673 27.6461 20.6223L25.4067 21.7412C24.5411 22.1707 23.813 22.8341 23.3051 23.6562C22.7971 24.4783 22.5295 25.4262 22.5326 26.3926V34.6036C22.5243 37.78 23.1434 40.9267 24.3544 43.8632C25.5654 46.7997 27.3444 49.4682 29.5893 51.7153L20.5146 56.253L17.844 32.2136ZM3.46665 78.2941C3.45636 75.3948 4.25894 72.5507 5.7833 70.0845C7.30766 67.6183 9.49277 65.6288 12.0907 64.3416L15.3984 62.6876L31.2362 75.0053L33.338 73.2541L36.2074 100.513H20.7993V83.1808H17.3328V100.513H3.46665V78.2941ZM46.9897 100.513L49.8591 73.2541L51.9609 75.0053L67.7986 62.6876L71.1063 64.3416C73.4982 65.5422 75.5424 67.3357 77.0438 69.5511C75.3434 69.9587 73.8294 70.926 72.7449 72.2977C71.6604 73.6694 71.0684 75.3657 71.0641 77.1143V78.2433C68.2836 77.6713 65.3923 78.0263 62.8329 79.254C60.2734 80.4817 58.1868 82.5143 56.8926 85.0408C55.5983 87.5673 55.1678 90.4483 55.6669 93.2428C56.1659 96.0372 57.5671 98.5911 59.6559 100.513H46.9897ZM78.8638 100.513C77.7149 100.512 76.6133 100.055 75.8009 99.2431C74.9885 98.4307 74.5317 97.3292 74.5306 96.1803V88.3806H83.1969V96.1803C83.1959 97.3292 82.739 98.4307 81.9266 99.2431C81.1142 100.055 80.0127 100.512 78.8638 100.513Z" fill="#343A40"/>
</svg>
